<svg xmlns="http://www.w3.org/2000/svg" xmlns:xlink="http://www.w3.org/1999/xlink" width="1135" height="397" viewBox="0 0 1135 397">
  <defs>
    <filter id="Path_3044" x="0" y="107" width="226" height="226" filterUnits="userSpaceOnUse">
      <feOffset dy="3" input="SourceAlpha"/>
      <feGaussianBlur stdDeviation="3" result="blur"/>
      <feFlood flood-opacity="0.161"/>
      <feComposite operator="in" in2="blur"/>
      <feComposite in="SourceGraphic"/>
    </filter>
    <filter id="Ellipse_155" x="2" y="105" width="216" height="216" filterUnits="userSpaceOnUse">
      <feOffset dy="3" input="SourceAlpha"/>
      <feGaussianBlur stdDeviation="3" result="blur-2"/>
      <feFlood flood-opacity="0.161"/>
      <feComposite operator="in" in2="blur-2"/>
      <feComposite in="SourceGraphic"/>
    </filter>
    <filter id="Ellipse_141" x="908" y="111" width="226" height="226" filterUnits="userSpaceOnUse">
      <feOffset dy="3" input="SourceAlpha"/>
      <feGaussianBlur stdDeviation="3" result="blur-3"/>
      <feFlood flood-opacity="0.161"/>
      <feComposite operator="in" in2="blur-3"/>
      <feComposite in="SourceGraphic"/>
    </filter>
    <filter id="Ellipse_156" x="911" y="108" width="216" height="216" filterUnits="userSpaceOnUse">
      <feOffset dy="3" input="SourceAlpha"/>
      <feGaussianBlur stdDeviation="3" result="blur-4"/>
      <feFlood flood-opacity="0.161"/>
      <feComposite operator="in" in2="blur-4"/>
      <feComposite in="SourceGraphic"/>
    </filter>
    <filter id="Ellipse_141-2" x="311" y="108" width="226" height="226" filterUnits="userSpaceOnUse">
      <feOffset dy="3" input="SourceAlpha"/>
      <feGaussianBlur stdDeviation="3" result="blur-5"/>
      <feFlood flood-opacity="0.161"/>
      <feComposite operator="in" in2="blur-5"/>
      <feComposite in="SourceGraphic"/>
    </filter>
    <filter id="Ellipse_156-2" x="314" y="105" width="216" height="216" filterUnits="userSpaceOnUse">
      <feOffset dy="3" input="SourceAlpha"/>
      <feGaussianBlur stdDeviation="3" result="blur-6"/>
      <feFlood flood-opacity="0.161"/>
      <feComposite operator="in" in2="blur-6"/>
      <feComposite in="SourceGraphic"/>
    </filter>
    <filter id="Ellipse_141-3" x="608" y="108" width="226" height="226" filterUnits="userSpaceOnUse">
      <feOffset dy="3" input="SourceAlpha"/>
      <feGaussianBlur stdDeviation="3" result="blur-7"/>
      <feFlood flood-opacity="0.161"/>
      <feComposite operator="in" in2="blur-7"/>
      <feComposite in="SourceGraphic"/>
    </filter>
    <filter id="Ellipse_156-3" x="611" y="105" width="216" height="216" filterUnits="userSpaceOnUse">
      <feOffset dy="3" input="SourceAlpha"/>
      <feGaussianBlur stdDeviation="3" result="blur-8"/>
      <feFlood flood-opacity="0.161"/>
      <feComposite operator="in" in2="blur-8"/>
      <feComposite in="SourceGraphic"/>
    </filter>
  </defs>
  <g id="Group_1695" data-name="Group 1695" transform="translate(-19697 -1305)">
    <path id="Path_3063" data-name="Path 3063" d="M413,1001l8,8-8,8" transform="translate(19546 507)" fill="none" stroke="#1c819b" stroke-width="2"/>
    <path id="Path_3064" data-name="Path 3064" d="M714,1001l8,8-8,8" transform="translate(19546 507)" fill="none" stroke="#1c819b" stroke-width="2"/>
    <path id="Path_3065" data-name="Path 3065" d="M1020,1001l8,8-8,8" transform="translate(19546 507)" fill="none" stroke="#1c819b" stroke-width="2"/>
    <g id="Group_1691" data-name="Group 1691" transform="translate(7006 1241)">
      <g transform="matrix(1, 0, 0, 1, 12691, 64)" filter="url(#Path_3044)">
        <path id="Path_3044-2" data-name="Path 3044" d="M104,0A104,104,0,1,1,0,104,104,104,0,0,1,104,0Z" transform="translate(9 113)" fill="#fce7fa"/>
      </g>
      <g transform="matrix(1, 0, 0, 1, 12691, 64)" filter="url(#Ellipse_155)">
        <circle id="Ellipse_155-2" data-name="Ellipse 155" cx="99" cy="99" r="99" transform="translate(11 111)" fill="#f2d4ef"/>
      </g>
    </g>
    <text id="How_to_verify_my_new_leads_" data-name="How to verify my new leads ?" transform="translate(20046 1341)" fill="#707070" font-size="34" font-family="Roboto-Medium, Roboto" font-weight="500"><tspan x="0" y="0">How to verify my new leads ?</tspan></text>
    <text id="_1._Create_account" data-name="1. Create account" transform="translate(19709 1671)" fill="#1c819b" font-size="20" font-family="Roboto-Regular, Roboto"><tspan x="0" y="0">1. Create account</tspan></text>
    <text id="_2._Upload_raw_leads" data-name="2. Upload raw leads" transform="translate(20020 1671)" fill="#1c819b" font-size="20" font-family="Roboto-Regular, Roboto"><tspan x="0" y="0">2. Upload raw leads</tspan></text>
    <text id="_3._PinBlu_filters_our_fraud_leads_Separates_verified_leads." data-name="3. PinBlu filters our fraud leads,
Separates verified leads." transform="translate(20428 1671)" fill="#1c819b" font-size="20" font-family="Roboto-Regular, Roboto"><tspan x="-137.886" y="0">3. PinBlu filters our fraud leads,</tspan><tspan x="-108.599" y="26">Separates verified leads.</tspan></text>
    <text id="_4._Done_just_download" data-name="4. Done, just download" transform="translate(20630 1671)" fill="#1c819b" font-size="20" font-family="Roboto-Regular, Roboto"><tspan x="0" y="0">4. Done, just download</tspan></text>
    <g id="Group_1692" data-name="Group 1692" transform="translate(7603 1244)">
      <g transform="matrix(1, 0, 0, 1, 12094, 61)" filter="url(#Ellipse_141)">
        <circle id="Ellipse_141-4" data-name="Ellipse 141" cx="104" cy="104" r="104" transform="translate(917 117)" fill="#ddf7cb"/>
      </g>
      <g transform="matrix(1, 0, 0, 1, 12094, 61)" filter="url(#Ellipse_156)">
        <circle id="Ellipse_156-4" data-name="Ellipse 156" cx="99" cy="99" r="99" transform="translate(920 114)" fill="#cbefa7"/>
      </g>
    </g>
    <g id="cloud-computing" transform="translate(20675.031 1459.422)">
      <path id="Path_3035" data-name="Path 3035" d="M72.425,44.836a28.815,28.815,0,0,0-57.039,5.678c0,.649.027,1.314.084,2.017a17.289,17.289,0,0,0,1.836,34.483h2.017c-.046-.638-.1-1.272-.1-1.921a24.973,24.973,0,1,1,49.947,0c0,.649-.05,1.283-.1,1.921H71.1a21.108,21.108,0,0,0,1.329-42.178Z" transform="translate(0 0)" fill="none" stroke="#fff" stroke-width="4"/>
      <circle id="Ellipse_154" data-name="Ellipse 154" cx="17.5" cy="17.5" r="17.5" transform="translate(27.07 67.962)" fill="none" stroke="#fff" stroke-width="4"/>
      <g id="Group_1640" data-name="Group 1640" transform="translate(34.618 71.646)">
        <path id="Path_3036" data-name="Path 3036" d="M236.688,325.364a1.921,1.921,0,0,1-1.921-1.921V300.39a1.921,1.921,0,1,1,3.842,0v23.052A1.921,1.921,0,0,1,236.688,325.364Z" transform="translate(-227.105 -298.469)" fill="#fff"/>
        <path id="Path_3037" data-name="Path 3037" d="M201.8,395.444a1.92,1.92,0,0,1-1.36-.561L192.76,387.2a1.921,1.921,0,0,1,2.716-2.716l6.328,6.324,6.324-6.324a1.921,1.921,0,0,1,2.716,2.716l-7.684,7.684A1.922,1.922,0,0,1,201.8,395.444Z" transform="translate(-192.221 -368.55)" fill="#fff"/>
      </g>
    </g>
    <g id="Group_1693" data-name="Group 1693" transform="translate(7006 1241)">
      <g transform="matrix(1, 0, 0, 1, 12691, 64)" filter="url(#Ellipse_141-2)">
        <circle id="Ellipse_141-5" data-name="Ellipse 141" cx="104" cy="104" r="104" transform="translate(320 114)" fill="#e7dff8"/>
      </g>
      <g transform="matrix(1, 0, 0, 1, 12691, 64)" filter="url(#Ellipse_156-2)">
        <circle id="Ellipse_156-5" data-name="Ellipse 156" cx="99" cy="99" r="99" transform="translate(323 111)" fill="#dacbfc"/>
      </g>
    </g>
    <g id="Group_1694" data-name="Group 1694" transform="translate(7303 1241)">
      <g transform="matrix(1, 0, 0, 1, 12394, 64)" filter="url(#Ellipse_141-3)">
        <circle id="Ellipse_141-6" data-name="Ellipse 141" cx="104" cy="104" r="104" transform="translate(617 114)" fill="#d7f7f8"/>
      </g>
      <g transform="matrix(1, 0, 0, 1, 12394, 64)" filter="url(#Ellipse_156-3)">
        <circle id="Ellipse_156-6" data-name="Ellipse 156" cx="99" cy="99" r="99" transform="translate(620 111)" fill="#bdf3f5"/>
      </g>
    </g>
    <path id="filter" d="M71.905,0H3.71A3.2,3.2,0,0,0,.854,1.74a3.248,3.248,0,0,0,.253,3.381L26.091,40.315l.026.036a7.139,7.139,0,0,1,1.4,4.236V73.281a3.19,3.19,0,0,0,3.19,3.21,3.285,3.285,0,0,0,1.258-.252l14.039-5.353a3.04,3.04,0,0,0,2.093-3v-23.3a7.139,7.139,0,0,1,1.4-4.236l.026-.036,24.983-35.2a3.246,3.246,0,0,0,.253-3.379A3.2,3.2,0,0,0,71.905,0ZM46.369,38.051a11.053,11.053,0,0,0-2.155,6.536V67.414L31.4,72.3V44.587a11.049,11.049,0,0,0-2.155-6.536L4.99,3.883H70.625Zm0,0" transform="translate(20380.176 1485.509)" fill="#fff"/>
    <g id="surface1" transform="translate(20077.137 1469)">
      <path id="Path_3038" data-name="Path 3038" d="M51.516.732A2.291,2.291,0,0,0,49.87,0H12.94A12.492,12.492,0,0,0,.5,12.417V82.253A12.492,12.492,0,0,0,12.94,94.67H63.064A12.492,12.492,0,0,0,75.5,82.253V26.8a2.46,2.46,0,0,0-.663-1.6Zm.663,7.34L67.8,24.468H57.645a5.446,5.446,0,0,1-5.465-5.442ZM63.064,90.1H12.94a7.921,7.921,0,0,1-7.866-7.844V12.417A7.921,7.921,0,0,1,12.94,4.573H47.606V19.025A10,10,0,0,0,57.645,29.041H70.93V82.253A7.905,7.905,0,0,1,63.064,90.1Zm0,0" fill="#fff"/>
      <path id="Path_3039" data-name="Path 3039" d="M129.1,401.934H91.459a2.287,2.287,0,1,0,0,4.573h37.662a2.287,2.287,0,1,0-.023-4.573Zm0,0" transform="translate(-72.276 -327.615)" fill="#fff"/>
      <path id="Path_3040" data-name="Path 3040" d="M122.379,188.522l9.421-10.131v24.971a2.287,2.287,0,1,0,4.573,0V178.391l9.421,10.131a2.282,2.282,0,0,0,3.339-3.11l-13.4-14.383a2.27,2.27,0,0,0-3.338,0L119,185.412a2.279,2.279,0,0,0,.114,3.224A2.333,2.333,0,0,0,122.379,188.522Zm0,0" transform="translate(-96.085 -138.809)" fill="#fff"/>
    </g>
    <g id="login" transform="translate(19756.32 1476.653)">
      <g id="Group_1642" data-name="Group 1642">
        <g id="Group_1641" data-name="Group 1641">
          <path id="Path_3041" data-name="Path 3041" d="M34.336,179.933a1.877,1.877,0,0,0,2.654,2.654L52.007,167.57a1.873,1.873,0,0,0,.405-.612,1.849,1.849,0,0,0,.083-.405,1.759,1.759,0,0,0,.064-.312,1.782,1.782,0,0,0-.083-.4,1.717,1.717,0,0,0-.064-.308A1.969,1.969,0,0,0,52,164.9L36.99,149.9a1.877,1.877,0,0,0-2.654,2.654l11.815,11.811H1.877a1.877,1.877,0,1,0,0,3.754H46.151Z" transform="translate(0 -123.068)" fill="#fff"/>
          <path id="Path_3042" data-name="Path 3042" d="M200.015,0h-41.3a9.4,9.4,0,0,0-9.385,9.385V28.157a1.877,1.877,0,1,0,3.754,0V9.385a5.638,5.638,0,0,1,5.631-5.631h41.3a5.638,5.638,0,0,1,5.631,5.631V76.961a5.638,5.638,0,0,1-5.631,5.631h-41.3a5.638,5.638,0,0,1-5.631-5.631V58.19a1.877,1.877,0,1,0-3.754,0V76.962a9.4,9.4,0,0,0,9.385,9.385h41.3a9.4,9.4,0,0,0,9.385-9.385V9.386A9.4,9.4,0,0,0,200.015,0Z" transform="translate(-123.054)" fill="#fff"/>
        </g>
      </g>
    </g>
  </g>
</svg>
